# xmcd CD database file generated by OrangeCD 4.3
#
# Track frame offsets:
#	150
#	26120
#	42754
#	60606
#	74511
#	93272
#	110629
#	131211
#	143720
#	162506
#	179940
#	202161
#	220710
#	236647
#
# Disc length: 3469 seconds
#
# Revision: 0
# Processed by: cddbd v1.4PL0 Copyright (c) Steve Scherf et al.
# Submitted via: OrangeCD 4.3
#
DISCID=de0d8b0e
DTITLE=Lil Rob - Still Smokin'
DYEAR=2000
DGENRE=Blues
TTITLE0=Still Smokin
TTITLE1=STR8 Jackin
TTITLE2=Still Smokin
TTITLE3=Mexican Gangster
TTITLE4=U Can't C Me
TTITLE5=Leva, Leva, Leva, Leva Die
TTITLE6=Fuckin wit my Bizzness
TTITLE7=I'll Kill You
TTITLE8=I Remember
TTITLE9=Rumors
TTITLE10=Apocalypse
TTITLE11=Wicked, Wicked, Wicked
TTITLE12=Goa Ahead
TTITLE13=Take To The Sky
EXTD=
EXTT0=
EXTT1=
EXTT2=
EXTT3=
EXTT4=
EXTT5=
EXTT6=
EXTT7=
EXTT8=
EXTT9=
EXTT10=
EXTT11=
EXTT12=
EXTT13=
PLAYORDER=
